<svg width="24" height="24" viewBox="0 0 24 24" fill="none" xmlns="http://www.w3.org/2000/svg"><g clip-path="url(#clip0_3813_12522)"><path fill-rule="evenodd" clip-rule="evenodd" d="M6.14062 21.1895C3.94062 21.1895 2.14062 19.3895 2.14062 17.1895V16.1895C2.14062 15.5895 2.64062 15.1895 3.14062 14.9895C4.34063 14.5895 5.14062 13.4895 5.14062 12.1895C5.14062 10.8895 4.34063 9.78945 3.14062 9.38945C2.64062 9.18945 2.14062 8.78945 2.14062 8.18945V7.18945C2.14062 4.98945 3.94062 3.18945 6.14062 3.18945H18.1406C20.3406 3.18945 22.1406 4.98945 22.1406 7.18945V8.18945C22.1406 8.78945 21.6406 9.18945 21.1406 9.38945C19.9406 9.78945 19.1406 10.8895 19.1406 12.1895C19.1406 13.4895 19.9406 14.5895 21.1406 14.9895C21.6406 15.1895 22.1406 15.5895 22.1406 16.1895V17.1895C22.1406 19.3895 20.3406 21.1895 18.1406 21.1895H6.14062ZM9.14062 10.1895C9.74062 10.1895 10.1406 9.78945 10.1406 9.18945C10.1406 8.58945 9.74062 8.18945 9.14062 8.18945C8.54063 8.18945 8.14062 8.58945 8.14062 9.18945C8.14062 9.78945 8.54063 10.1895 9.14062 10.1895ZM16.1406 15.1895C16.1406 15.7895 15.7406 16.1895 15.1406 16.1895C14.5406 16.1895 14.1406 15.7895 14.1406 15.1895C14.1406 14.5895 14.5406 14.1895 15.1406 14.1895C15.7406 14.1895 16.1406 14.5895 16.1406 15.1895ZM15.6406 9.68945C15.9406 9.38945 15.9406 8.88945 15.6406 8.58945C15.3406 8.28945 14.8406 8.28945 14.5406 8.58945L8.54062 14.5895C8.24062 14.8895 8.24062 15.3895 8.54062 15.6895C8.84062 15.9895 9.34062 15.9895 9.64062 15.6895L15.6406 9.68945Z" fill="#F79009"></path></g><defs><clipPath id="clip0_3813_12522"><rect width="24" height="24" fill="white"></rect></clipPath></defs></svg>